<?xml version="1.0" standalone="no"?>
<!DOCTYPE svg PUBLIC "-//W3C//DTD SVG 20010904//EN"
 "http://www.w3.org/TR/2001/REC-SVG-20010904/DTD/svg10.dtd">
<svg version="1.0" xmlns="http://www.w3.org/2000/svg"
 width="379.000000pt" height="39.000000pt" viewBox="0 0 379.000000 39.000000"
 preserveAspectRatio="xMidYMid meet">

<g transform="translate(0.000000,39.000000) scale(0.100000,-0.100000)"
fill="#000000" stroke="none">
<path d="M100 369 c-14 -11 -42 -29 -62 -40 -46 -24 -49 -39 -8 -39 l30 0 0
-128 c0 -112 2 -131 18 -145 24 -22 50 -21 105 2 59 26 72 45 23 36 -59 -12
-66 1 -66 126 l0 109 45 0 c37 0 45 3 45 19 0 16 -6 18 -45 13 l-45 -5 0 37
c0 41 -5 43 -40 15z"/>
<path d="M1007 224 c-65 -90 -122 -164 -128 -164 -5 0 -9 45 -9 104 0 116 -14
149 -70 161 -76 17 -205 -41 -198 -89 5 -37 49 -27 73 16 11 21 26 40 33 43
23 9 65 -19 75 -49 12 -37 0 -47 -94 -76 -83 -25 -109 -47 -109 -94 0 -73 99
-100 172 -46 l29 21 20 -25 c11 -14 28 -26 38 -26 10 0 45 39 86 97 l70 98 3
-68 c3 -69 -7 -97 -34 -97 -8 0 -14 -4 -14 -10 0 -6 37 -10 93 -10 l92 1 -27
20 c-27 20 -28 24 -28 110 0 100 15 129 68 129 46 0 52 -15 52 -127 0 -101 -1
-104 -25 -113 -14 -5 -25 -12 -25 -15 0 -3 41 -5 90 -5 84 0 117 11 70 23 -18
5 -20 14 -20 105 0 114 12 136 71 130 40 -4 47 -21 48 -126 1 -77 -10 -112
-34 -112 -8 0 -15 -4 -15 -10 0 -6 37 -10 90 -10 53 0 90 4 90 10 0 6 -9 10
-19 10 -27 0 -31 18 -31 135 0 95 -2 106 -24 132 -20 24 -32 28 -71 27 -38 -1
-52 -7 -79 -33 -33 -32 -34 -32 -41 -12 -3 12 -20 28 -37 37 -41 21 -89 11
-133 -28 -19 -16 -35 -27 -35 -24 0 15 32 82 47 98 9 10 14 20 12 22 -2 2 -57
-70 -122 -160z m-217 -92 c0 -57 -50 -98 -98 -81 -20 7 -23 15 -20 46 3 34 7
39 48 55 65 25 70 23 70 -20z"/>
<path d="M2475 380 c-4 -6 -31 -25 -61 -41 -61 -35 -68 -49 -24 -49 l30 0 0
-128 c0 -112 2 -131 18 -145 10 -10 29 -17 41 -17 27 0 121 39 121 51 0 4 -19
7 -42 6 l-43 -2 -3 118 -3 117 40 0 c34 0 51 12 51 35 0 1 -20 0 -44 -2 -44
-5 -45 -5 -48 28 -3 33 -21 49 -33 29z"/>
<path d="M328 307 c-32 -10 -58 -22 -58 -26 0 -3 10 -11 23 -16 21 -10 22 -16
22 -120 0 -106 -1 -110 -22 -113 -13 -2 -23 -8 -23 -13 0 -5 43 -9 95 -9 52 0
95 4 95 9 0 5 -10 11 -22 13 -21 3 -23 9 -26 84 -2 69 0 84 18 107 18 22 30
27 66 27 l44 0 0 40 c0 38 -2 40 -29 40 -22 0 -38 -10 -60 -37 -17 -21 -31
-43 -31 -50 0 -7 -5 -13 -10 -13 -7 0 -8 18 -4 50 8 58 8 57 -78 27z"/>
<path d="M1685 315 c-57 -20 -102 -73 -110 -129 -6 -37 -3 -55 16 -93 32 -62
65 -85 133 -91 63 -5 133 22 159 62 46 69 39 156 -16 214 -48 50 -110 63 -182
37z m100 -41 c29 -32 39 -76 33 -149 -6 -67 -29 -97 -72 -93 -50 5 -76 55 -76
145 0 65 3 77 25 98 31 32 60 32 90 -1z"/>
<path d="M2050 320 c-8 -6 -34 -15 -57 -21 -49 -13 -53 -20 -20 -34 21 -9 22
-17 25 -118 3 -107 3 -107 -23 -117 -14 -5 -25 -12 -25 -15 0 -3 41 -5 90 -5
84 0 117 11 70 23 -18 5 -20 14 -20 105 0 111 11 132 68 132 43 0 52 -22 52
-124 0 -93 -5 -116 -26 -116 -8 0 -14 -4 -14 -10 0 -6 35 -10 85 -10 50 0 85
4 85 10 0 6 -7 10 -15 10 -26 0 -35 37 -35 139 0 117 -3 127 -42 147 -41 21
-89 11 -134 -28 -37 -33 -52 -33 -34 1 17 33 0 51 -30 31z"/>
<path d="M2773 321 c-40 -10 -93 -41 -106 -62 -14 -22 -2 -49 22 -49 20 0 61
43 61 65 0 38 80 21 95 -19 14 -41 -3 -57 -84 -82 -87 -27 -121 -55 -121 -100
0 -69 88 -96 164 -51 l38 24 24 -24 c29 -28 47 -29 90 -2 37 22 46 44 15 34
-30 -9 -41 23 -41 124 0 79 -3 93 -23 116 -24 29 -79 40 -134 26z m77 -196 c0
-37 -4 -47 -25 -61 -31 -20 -74 -21 -86 -3 -24 38 -2 77 56 97 51 18 55 15 55
-33z"/>
<path d="M3068 306 c-32 -11 -58 -23 -58 -26 0 -3 10 -10 23 -15 20 -9 22 -18
25 -100 4 -109 -2 -135 -28 -135 -11 0 -20 -4 -20 -10 0 -6 37 -10 93 -9 87 0
91 1 70 16 -21 14 -23 23 -23 113 0 109 11 130 69 130 41 0 51 -25 51 -135 0
-79 -1 -84 -27 -104 l-28 -20 93 -1 c92 0 111 7 70 25 -22 9 -23 18 -28 127
-4 94 -8 120 -24 136 -38 43 -104 36 -158 -15 -32 -31 -43 -27 -29 10 16 42
11 43 -71 13z"/>
<path d="M3577 319 c-78 -18 -125 -57 -111 -93 3 -9 17 -16 30 -16 18 0 29 10
44 40 24 48 37 55 73 41 29 -11 46 -55 30 -79 -5 -9 -43 -26 -84 -38 -112 -35
-150 -94 -94 -149 32 -32 86 -33 141 -1 l41 23 21 -24 c25 -28 47 -29 90 -3
37 23 42 41 10 37 -22 -2 -23 1 -28 103 -6 116 -17 144 -64 160 -33 12 -46 11
-99 -1z m73 -193 c0 -35 -5 -48 -22 -60 -44 -31 -98 -15 -98 29 0 26 23 48 65
63 51 18 55 15 55 -32z"/>
</g>
</svg>
